<svg version="1.1" id="Layer_1" xmlns="http://www.w3.org/2000/svg" xmlns:xlink="http://www.w3.org/1999/xlink" x="0px" y="0px"
	 width="100%" viewBox="0 0 448 471" enable-background="new 0 0 448 471" xml:space="preserve">
<path fill="#FAFBFB" opacity="1.000000" stroke="none" 
	d="
M252.000000,472.000000 
	C168.022705,472.000000 84.545418,472.000000 1.034065,472.000000 
	C1.034065,315.065430 1.034065,158.130829 1.034065,1.098115 
	C150.227249,1.098115 299.454590,1.098115 448.840942,1.098115 
	C448.840942,157.999878 448.840942,314.999908 448.840942,472.000000 
	C383.464203,472.000000 317.982117,472.000000 252.000000,472.000000 
M298.988678,448.062897 
	C298.944397,443.714966 298.900085,439.367065 299.064453,434.146545 
	C299.002350,431.760742 298.940216,429.374908 299.049316,426.170624 
	C299.020782,424.781708 298.992218,423.392792 299.154022,421.411530 
	C299.218323,421.002075 299.282623,420.592590 300.220917,420.146637 
	C304.475067,419.883514 308.729187,419.620422 312.928589,419.360718 
	C314.154541,414.855042 312.763214,412.642548 308.238434,412.658325 
	C300.580231,412.685059 292.919342,412.552887 285.266144,412.746582 
	C284.131958,412.775269 283.033600,414.219269 281.725800,415.502441 
	C281.793121,415.665894 281.860443,415.829346 281.726959,416.654358 
	C281.793640,417.105377 281.860291,417.556427 281.702179,418.805634 
	C282.963379,419.451752 284.163788,420.306763 285.499847,420.695801 
	C287.590179,421.304382 289.772308,421.597778 291.745270,422.514435 
	C291.811249,422.674194 291.877228,422.833923 291.722504,423.908691 
	C291.873383,429.280701 292.024261,434.652679 292.049194,440.921204 
	C292.133118,443.935455 292.217072,446.949677 292.104156,450.826752 
	C292.104156,452.531830 292.104156,454.236938 292.104156,456.769318 
	C294.998810,455.144806 299.349152,458.916290 298.971069,452.242554 
	C298.928925,451.502289 298.886780,450.762054 298.991821,449.499420 
	C298.940826,449.325836 298.889801,449.152252 298.988678,448.062897 
M245.484329,454.644348 
	C250.322311,455.094452 255.160309,455.544556 260.728790,456.062500 
	C262.828796,454.799683 265.222046,453.851166 266.974731,452.216034 
	C272.591705,446.975769 272.087524,440.075592 265.772949,436.280090 
	C264.862610,435.814453 263.952301,435.348785 262.650604,434.295746 
	C260.382202,433.359497 258.135254,432.366669 255.841324,431.497772 
	C249.551910,429.115509 248.757263,427.932495 249.676376,420.671692 
	C255.018845,420.436371 260.361328,420.201019 266.386871,419.935608 
	C265.595154,418.050171 265.239777,414.531586 263.588287,413.749390 
	C257.533783,410.881622 251.242691,410.427032 245.307480,416.149078 
	C238.180786,423.653229 238.760590,430.046600 247.049362,435.240326 
	C248.017456,435.846954 249.024811,436.390930 250.473434,437.493744 
	C253.007996,438.614075 255.689987,439.496643 258.022308,440.943085 
	C259.441772,441.823395 260.321930,443.573303 261.197906,445.675598 
	C259.804474,447.800232 258.411041,449.924866 256.172760,452.048340 
	C254.766556,452.081909 253.360367,452.115479 251.425827,451.619598 
	C247.559845,450.283112 243.693878,448.946655 239.657715,447.551331 
	C238.742554,451.913055 241.827393,453.028931 245.484329,454.644348 
M122.638863,456.417755 
	C124.050484,456.417755 125.462112,456.417755 127.796051,456.417755 
	C126.788918,453.334991 126.010757,450.953125 125.107323,448.005310 
	C124.757629,447.334473 124.407936,446.663605 124.070900,445.213196 
	C121.775513,439.451599 119.480125,433.690033 117.119614,427.177521 
	C115.608620,423.903107 114.297462,420.515930 112.530838,417.385803 
	C110.738541,414.210175 105.889595,413.766174 103.863670,416.750793 
	C101.494141,420.241669 99.793625,424.186646 97.223251,428.330750 
	C93.662697,437.226501 89.438705,445.940887 89.467827,455.867798 
	C96.117615,456.206116 97.533287,454.904205 98.686607,447.919769 
	C98.930489,447.665131 99.174362,447.410461 100.111702,447.337830 
	C101.058868,447.261322 102.006027,447.184814 103.628471,447.473022 
	C106.460480,447.424286 109.292480,447.375549 112.795990,447.668243 
	C114.843155,448.296936 118.131699,446.976837 117.833076,451.793640 
	C117.958519,452.867737 118.083954,453.941833 118.356400,455.756927 
	C119.561729,455.883972 120.767059,456.011017 122.638863,456.417755 
M27.786766,450.887329 
	C28.863499,452.575928 29.940231,454.264557 31.757425,456.162048 
	C33.093220,456.362671 34.429012,456.563293 35.764805,456.763916 
	C36.190395,456.403534 36.615986,456.043182 37.041576,455.682800 
	C35.029995,451.786987 33.018414,447.891205 30.958080,443.260010 
	C30.607916,441.838165 30.257751,440.416290 30.373184,438.479889 
	C31.575447,437.157074 32.881470,435.912933 33.957233,434.494202 
	C35.888641,431.947174 35.373001,426.727936 33.232498,424.257019 
	C33.362659,423.363800 33.910168,421.934021 33.558372,421.660400 
	C30.056812,418.936707 26.729416,415.233765 22.713432,414.126526 
	C18.152773,412.869141 12.938666,413.981812 7.133349,413.849792 
	C6.420689,414.812805 5.102967,415.766113 5.087396,416.740265 
	C4.896636,428.674683 4.998436,440.613953 4.782192,452.547607 
	C4.721334,455.906158 6.035692,456.631927 9.764248,456.160919 
	C12.628842,456.557587 13.106731,454.794220 13.105494,452.526215 
	C13.103410,448.703796 13.146328,444.881378 14.015849,440.968689 
	C19.953936,439.906769 23.595007,442.834717 26.086769,447.850555 
	C26.506290,448.695068 27.196224,449.405243 27.775154,450.125824 
	C27.775154,450.125824 27.769079,450.173737 27.786766,450.887329 
M348.002960,449.842743 
	C348.155304,457.469543 349.162018,458.086700 359.063049,456.380737 
	C358.518311,455.190369 357.995239,454.047394 357.199860,452.224548 
	C356.389984,450.496735 355.580109,448.768890 354.820343,446.314240 
	C352.558319,441.540039 350.296295,436.765839 347.986877,431.368896 
	C347.445496,430.540710 346.904114,429.712494 346.301300,428.109955 
	C345.499207,425.750854 344.697113,423.391724 343.928558,420.301758 
	C342.357941,415.937897 340.619934,411.791046 334.654541,413.019257 
	C330.488373,413.877014 331.995544,417.541443 330.785919,420.632965 
	C330.454926,421.728455 330.123901,422.823944 329.257019,424.379578 
	C328.290680,426.883636 327.324341,429.387695 326.002991,432.429626 
	C325.378204,434.304932 324.753387,436.180206 323.731201,438.671539 
	C322.184784,443.924072 316.939911,448.441040 320.404297,454.636566 
	C323.827728,455.940704 325.092529,454.173523 326.070160,451.342743 
	C326.645874,449.675873 327.982178,448.271637 329.898682,446.931946 
	C332.701477,446.941895 335.534790,446.697113 338.299194,447.027802 
	C341.580841,447.420349 344.803284,448.308167 348.002960,449.842743 
M434.288818,449.897644 
	C433.832489,450.056519 433.376160,450.215424 432.125153,450.213013 
	C427.757050,450.189728 423.388916,450.166473 418.525208,449.899872 
	C418.345734,449.940704 418.166290,449.981537 417.316040,449.793976 
	C416.526764,448.537170 415.737488,447.280365 415.149506,445.175751 
	C415.079559,443.441956 415.009613,441.708160 415.066376,439.153503 
	C416.619995,434.919006 420.448669,438.016937 423.718781,437.010162 
	C424.875214,437.062256 426.041840,437.034302 427.186401,437.179749 
	C433.215546,437.946014 433.650818,437.460999 432.036377,430.828979 
	C429.090637,431.061798 426.030640,431.303650 422.284760,431.369812 
	C421.343811,431.376801 420.402863,431.383759 419.054565,430.906403 
	C417.793976,429.838257 416.533386,428.770111 415.339172,427.026550 
	C415.318359,426.122681 415.297577,425.218842 416.051636,424.057648 
	C420.993835,423.700867 425.931732,423.253876 430.879730,423.019623 
	C434.078491,422.868103 436.638062,422.793640 436.801422,418.312592 
	C436.961487,413.922028 434.416504,413.243225 431.324646,413.168854 
	C424.177826,412.996857 417.023254,413.046722 409.875061,413.180603 
	C409.097473,413.195129 408.341217,414.348694 407.525085,415.887512 
	C407.508759,421.968384 407.492432,428.049225 407.370148,434.702820 
	C407.574493,435.014557 407.778870,435.326263 408.462555,435.875031 
	C408.560242,435.725922 408.657898,435.576813 408.748505,435.485443 
	C408.748505,435.485443 408.693665,435.498352 407.736755,436.036987 
	C407.735718,442.436005 407.734680,448.835022 407.999359,456.009247 
	C416.839996,456.323608 425.679779,456.703033 434.522980,456.815216 
	C435.155457,456.823242 436.288574,454.894470 436.333771,453.829956 
	C436.386017,452.599792 435.490051,451.329315 434.288818,449.897644 
M75.917610,419.014435 
	C75.889297,417.990845 75.860985,416.967255 75.946800,415.158752 
	C74.985344,414.543884 74.060219,413.482697 73.055351,413.400879 
	C70.427773,413.186951 67.765343,413.401093 64.219368,413.173431 
	C61.104057,413.268890 57.988747,413.364319 54.024448,413.331726 
	C52.420189,413.331726 50.815929,413.331726 49.112556,413.331726 
	C49.112556,427.827972 49.112556,441.753510 49.112556,456.279419 
	C58.496258,456.279419 67.549896,456.279419 76.602005,456.279419 
	C77.401665,452.723816 75.779770,451.323792 72.383224,451.349670 
	C66.958824,451.390991 61.533882,451.360718 55.287628,451.360718 
	C55.972984,446.374207 56.502399,442.522339 57.800827,438.556885 
	C59.543594,438.393005 61.286366,438.229126 63.660908,438.248627 
	C64.094017,438.202179 64.527122,438.155762 65.582672,438.575500 
	C67.921936,438.575500 70.261200,438.575500 73.028091,438.575500 
	C72.866768,436.621979 72.752007,435.232269 72.570641,433.086212 
	C71.721237,432.658966 70.871841,432.231689 70.015152,431.013580 
	C70.762741,429.613159 71.188850,427.414642 72.317413,426.960052 
	C75.887222,425.522186 76.390404,423.012695 75.917610,419.014435 
M6.093565,159.179352 
	C8.041016,167.078476 12.202513,171.834106 21.185740,170.049942 
	C22.229149,169.842728 23.434475,170.641098 24.561371,170.630066 
	C28.847635,170.588074 33.348202,173.141769 38.848534,169.051163 
	C35.286751,168.592728 33.103760,168.279160 30.912859,168.037262 
	C27.480822,167.658340 24.013172,167.492813 20.627613,166.871658 
	C19.669706,166.695908 18.562042,165.358780 18.270163,164.340195 
	C18.117462,163.807312 19.459909,162.343857 20.344122,162.105423 
	C23.659739,161.211227 27.044277,160.512955 30.441999,159.999374 
	C33.948986,159.469315 37.501400,159.239822 41.955132,158.735718 
	C47.007961,158.594879 52.060795,158.454056 57.962193,158.552032 
	C65.038216,159.411469 71.414497,157.507507 77.364006,153.751221 
	C120.815063,126.317932 164.305435,98.946693 207.686813,71.403702 
	C211.635437,68.896698 214.746201,68.782829 218.569885,71.377945 
	C233.288193,81.367241 248.007217,91.364731 262.950623,101.011169 
	C291.859558,119.672821 320.913361,138.110321 349.945557,156.580246 
	C351.120514,157.327744 352.678223,157.786346 354.073486,157.826355 
	C367.712097,158.217636 381.354065,158.491135 395.646790,159.001831 
	C396.096802,158.962601 396.546844,158.923355 397.498566,159.002426 
	C397.667908,158.973312 397.837219,158.944214 398.821106,159.127945 
	C405.902039,159.127945 412.983002,159.127945 420.063934,159.127945 
	C420.131042,158.862152 420.198151,158.596375 420.265228,158.330582 
	C413.855560,154.542847 407.445862,150.755112 400.610535,146.422318 
	C395.908752,143.178879 391.529938,139.242950 386.425629,136.862701 
	C379.643799,133.700180 379.150299,128.304550 379.119049,122.191910 
	C378.986206,96.205742 378.737793,70.219894 378.711334,44.233746 
	C378.707428,40.399109 377.715851,39.069542 373.653412,39.127331 
	C358.664490,39.340542 343.669891,39.145203 328.677429,39.131912 
	C327.259644,39.130657 325.841675,39.328556 324.261230,39.446083 
	C324.261230,59.208138 324.261230,78.488869 324.261230,98.473564 
	C322.544708,97.561874 321.238251,96.970520 320.035858,96.213737 
	C305.595764,87.125000 291.230133,77.916191 276.718109,68.944046 
	C269.142029,64.260086 261.204071,60.161457 253.627960,55.477497 
	C242.143707,48.377300 230.950729,40.797554 219.337875,33.921658 
	C217.261841,32.692444 213.424957,33.103470 210.976257,34.129612 
	C206.593079,35.966400 202.689896,38.922516 198.511017,41.277573 
	C183.361328,49.815334 167.972397,57.951248 153.070374,66.899368 
	C138.392487,75.712914 124.299789,85.494736 109.764458,94.553467 
	C87.356041,108.518875 64.791008,122.233032 42.288048,136.046661 
	C36.871838,139.371445 31.438494,142.668320 25.261534,145.791885 
	C19.053658,149.295319 12.827548,152.767502 6.672390,156.361237 
	C6.177982,156.649887 6.172025,157.775146 6.093565,159.179352 
M158.765411,456.267639 
	C161.121048,456.432770 163.476685,456.597870 165.854889,456.764557 
	C165.973541,451.140594 165.974167,451.119873 161.370529,450.979614 
	C159.582428,450.925140 157.790787,450.987579 155.215103,450.774353 
	C152.759369,450.535706 150.303635,450.297058 146.894302,449.965759 
	C146.894302,439.942505 146.831314,430.166443 146.928177,420.391937 
	C146.962479,416.930817 145.908096,414.888916 141.233078,415.113434 
	C138.201660,414.522980 138.067841,416.354828 138.142090,418.619080 
	C138.518112,430.087067 138.822586,441.557373 139.050995,453.759888 
	C139.093491,454.496887 139.135986,455.233887 139.096329,456.539917 
	C139.590729,456.615479 140.085129,456.691010 141.423904,456.646423 
	C146.950134,456.436920 152.476379,456.227448 158.765411,456.267639 
M362.722717,414.879272 
	C362.722717,416.798645 362.722717,418.718018 362.722717,420.782288 
	C365.078125,420.782288 367.025391,420.782288 369.867462,420.950806 
	C371.491943,420.950806 373.116425,420.950806 375.704285,420.950806 
	C375.704285,432.982452 375.704285,444.684326 375.704285,457.121185 
	C378.763672,456.595154 380.758850,456.252106 383.082397,455.852631 
	C383.082397,444.166595 383.082397,432.752747 383.082397,421.104523 
	C385.573029,421.104523 387.693237,420.995544 389.797272,421.133545 
	C392.145935,421.287628 394.731232,422.039734 394.745850,418.300171 
	C394.758301,415.119232 394.435608,412.404968 390.008575,412.522644 
	C382.201843,412.730133 374.384399,412.509186 366.573883,412.627930 
	C365.359100,412.646362 364.157227,413.513489 362.722717,414.879272 
M200.598938,416.249695 
	C200.673523,428.788666 200.748093,441.327667 200.516174,454.448822 
	C200.516174,455.239319 200.516174,456.029816 200.516174,456.525604 
	C202.455154,456.020752 204.245407,455.554626 206.528915,455.286530 
	C206.879669,455.287415 207.230408,455.288269 208.121521,455.865448 
	C215.180710,456.270142 222.239899,456.674835 230.914902,457.172150 
	C229.532608,454.230194 228.761429,452.588867 227.119095,450.742737 
	C220.679276,450.742737 214.239441,450.742737 207.441711,450.742737 
	C207.441711,445.819672 207.441711,442.117889 207.441711,438.052002 
	C213.723511,437.522675 219.634995,437.024567 225.879333,436.498413 
	C225.743210,434.647675 225.628525,433.088318 225.495987,431.286346 
	C219.126740,431.582611 213.223892,431.857208 207.269577,432.134155 
	C207.269577,427.869720 207.269577,424.171509 207.269577,420.099487 
	C214.413208,420.099487 221.184341,420.099487 228.229462,420.099487 
	C228.229462,417.999115 228.229462,416.284912 228.229462,414.236969 
	C218.960403,414.236969 210.000992,414.236969 200.500946,414.117584 
	C200.573486,414.546967 200.646042,414.976349 200.598938,416.249695 
M144.590271,130.613083 
	C131.450684,138.938431 118.311096,147.263779 104.346771,156.111694 
	C175.857941,157.235001 246.243973,158.340637 317.879181,159.465897 
	C315.943329,157.734589 315.075348,156.749588 314.020111,156.045212 
	C289.972534,139.993713 266.026031,123.785667 241.776550,108.044510 
	C232.890427,102.276230 223.237167,97.698067 214.019363,92.427452 
	C211.135071,90.778252 208.742279,91.349937 206.141235,92.898613 
	C198.146790,97.658592 190.100113,102.330849 181.616364,107.175728 
	C181.326584,107.333763 181.113007,107.562843 180.595459,108.401833 
	C179.793686,108.740860 178.991913,109.079887 177.855133,108.875816 
	C172.673645,110.991554 167.334854,112.796432 162.357346,115.315254 
	C157.870193,117.585922 153.783752,120.646477 149.510788,123.343140 
	C146.989838,124.934105 144.139206,126.290688 144.590271,130.613083 
M440.511993,381.757874 
	C441.267487,381.018036 442.664764,380.291992 442.681061,379.536224 
	C442.887695,369.952728 443.006470,360.362793 442.821411,350.780792 
	C442.796844,349.509338 440.969910,348.272675 439.045868,346.943817 
	C417.128815,346.943817 395.211761,346.943817 372.956848,346.943817 
	C372.956848,292.713318 372.956848,239.270737 372.956848,185.834167 
	C358.703705,185.834167 344.797516,185.834167 331.429657,185.834167 
	C331.429657,251.400986 331.429657,316.636688 331.429657,381.218689 
	C368.221313,381.218689 404.122192,381.218689 440.511993,381.757874 
M51.291180,184.515228 
	C36.045876,184.515228 20.800568,184.515228 5.335855,184.515228 
	C5.335855,218.481995 5.337343,251.786011 5.335371,285.090027 
	C5.333872,310.421356 5.326518,335.752686 5.325103,361.084015 
	C5.324768,367.083405 5.292814,373.083771 5.422011,379.080505 
	C5.433517,379.614563 6.532407,380.125183 7.977024,380.880371 
	C10.612329,380.793213 13.247633,380.706024 16.801912,380.852875 
	C21.552151,380.687866 26.302391,380.522858 31.956869,380.501678 
	C36.978222,380.529327 41.999573,380.556976 47.450138,381.048645 
	C48.130726,380.309784 48.811314,379.570923 49.647045,377.929779 
	C49.464745,352.197052 49.240868,326.464386 49.225380,300.731567 
	C49.224621,299.471527 51.047066,298.210358 52.938648,297.132385 
	C73.861298,297.132385 94.783951,297.132385 116.001854,297.132385 
	C116.001854,285.601349 115.954025,274.631104 116.038795,263.661865 
	C116.057663,261.220123 115.005417,260.809052 112.075111,261.184509 
	C91.187828,261.184509 70.300537,261.184509 49.290638,261.184509 
	C49.290638,247.482407 49.290638,234.529648 49.290638,220.927689 
	C76.039482,220.927689 102.669708,220.927689 129.847519,220.927689 
	C129.847519,210.514694 129.402328,200.857758 130.014481,191.268341 
	C130.381744,185.514984 127.795937,185.322739 123.425392,185.318909 
	C99.621887,185.298035 75.818581,185.053970 51.291180,184.515228 
M189.941574,381.962250 
	C206.946732,381.886810 223.951889,381.811340 241.776291,381.806305 
	C245.717453,381.184052 249.672592,380.638855 253.597565,379.927277 
	C282.729584,374.645935 303.546234,350.112061 301.995056,321.290192 
	C301.178497,306.118469 296.314972,292.685394 284.728973,282.286469 
	C281.491882,279.381073 278.054016,276.699402 274.548737,273.782349 
	C293.380402,258.791473 295.974731,239.485565 291.431335,218.351440 
	C289.695404,210.276474 285.483398,203.175995 278.700958,198.050552 
	C267.772644,189.792145 255.375259,185.096329 241.711960,184.926498 
	C215.896988,184.605591 190.075226,184.826965 164.256287,184.836777 
	C162.800217,184.837326 161.344177,184.962479 159.793442,185.033997 
	C159.793442,250.514618 159.793442,315.708435 159.793442,381.789734 
	C169.744888,381.789734 179.382507,381.789734 189.941574,381.962250 
M27.257231,388.995789 
	C22.449493,388.998260 17.639881,388.928864 12.835348,389.054138 
	C11.647749,389.085114 10.476642,389.748413 9.297953,390.121033 
	C9.728967,391.443268 9.915253,392.918762 10.631371,394.062500 
	C14.753480,400.645966 21.321983,400.243103 27.883425,400.027771 
	C33.439068,399.845459 38.240604,397.426697 37.539536,394.357452 
	C36.482582,389.730255 32.431351,388.842346 27.257231,388.995789 
z"/>
<path fill="#082452" opacity="1.000000" stroke="none" 
	d="
M189.020142,381.789734 
	C179.382507,381.789734 169.744888,381.789734 159.793442,381.789734 
	C159.793442,315.708435 159.793442,250.514618 159.793442,185.033997 
	C161.344177,184.962479 162.800217,184.837326 164.256287,184.836777 
	C190.075226,184.826965 215.896988,184.605591 241.711960,184.926498 
	C255.375259,185.096329 267.772644,189.792145 278.700958,198.050552 
	C285.483398,203.175995 289.695404,210.276474 291.431335,218.351440 
	C295.974731,239.485565 293.380402,258.791473 274.548737,273.782349 
	C278.054016,276.699402 281.491882,279.381073 284.728973,282.286469 
	C296.314972,292.685394 301.178497,306.118469 301.995056,321.290192 
	C303.546234,350.112061 282.729584,374.645935 253.597565,379.927277 
	C249.672592,380.638855 245.717453,381.184052 241.031036,381.537140 
	C223.790390,381.189423 207.295013,381.102905 190.799515,381.064575 
	C190.206955,381.063232 189.613281,381.537262 189.020142,381.789734 
M200.431931,252.785721 
	C200.607254,255.420090 200.782578,258.054443 200.948883,260.553406 
	C209.744217,260.553406 218.355484,260.586639 226.966400,260.545349 
	C238.933228,260.487976 245.638351,253.614441 249.876175,243.173126 
	C254.617218,231.492081 245.972778,219.705505 236.460999,219.078430 
	C224.369568,218.281281 212.220825,218.353516 199.393234,218.116913 
	C198.729263,219.299515 197.445068,220.515457 197.506531,221.659042 
	C197.805130,227.213470 198.435089,232.751541 199.010010,238.288925 
	C199.242294,240.526184 199.633377,242.746964 200.172028,245.718109 
	C200.119537,246.482941 200.067032,247.247787 199.482651,248.438232 
	C199.698013,249.629547 199.913376,250.820862 200.431931,252.785721 
M199.368530,293.122101 
	C199.132492,293.503143 198.696899,293.880157 198.689117,294.265839 
	C198.344620,311.313202 198.128113,328.363831 197.656784,345.407440 
	C197.552063,349.194672 199.536911,349.952881 202.482147,349.981781 
	C208.130615,350.037201 213.783676,350.117889 219.427490,349.946716 
	C222.300308,349.859619 225.157227,349.248505 228.699036,348.487701 
	C230.816376,348.064880 232.926178,347.599030 235.052307,347.226318 
	C248.388824,344.888458 260.313324,334.873413 259.426971,317.170502 
	C258.874115,306.128479 250.525711,295.369202 240.328110,294.242401 
	C227.014343,292.771240 213.476562,293.327728 199.368530,293.122101 
z"/>
<path fill="#0A2650" opacity="1.000000" stroke="none" 
	d="
M26.013029,145.978027 
	C31.438494,142.668320 36.871838,139.371445 42.288048,136.046661 
	C64.791008,122.233032 87.356041,108.518875 109.764458,94.553467 
	C124.299789,85.494736 138.392487,75.712914 153.070374,66.899368 
	C167.972397,57.951248 183.361328,49.815334 198.511017,41.277573 
	C202.689896,38.922516 206.593079,35.966400 210.976257,34.129612 
	C213.424957,33.103470 217.261841,32.692444 219.337875,33.921658 
	C230.950729,40.797554 242.143707,48.377300 253.627960,55.477497 
	C261.204071,60.161457 269.142029,64.260086 276.718109,68.944046 
	C291.230133,77.916191 305.595764,87.125000 320.035858,96.213737 
	C321.238251,96.970520 322.544708,97.561874 324.261230,98.473564 
	C324.261230,78.488869 324.261230,59.208138 324.261230,39.446083 
	C325.841675,39.328556 327.259644,39.130657 328.677429,39.131912 
	C343.669891,39.145203 358.664490,39.340542 373.653412,39.127331 
	C377.715851,39.069542 378.707428,40.399109 378.711334,44.233746 
	C378.737793,70.219894 378.986206,96.205742 379.119049,122.191910 
	C379.150299,128.304550 379.643799,133.700180 386.425629,136.862701 
	C391.529938,139.242950 395.908752,143.178879 400.840210,147.051086 
	C402.315643,149.905914 403.561401,152.131958 405.136505,154.946579 
	C402.702667,156.301270 400.354614,157.608200 398.006561,158.915131 
	C397.837219,158.944214 397.667908,158.973312 397.088226,158.754410 
	C396.116943,158.603638 395.556030,158.700882 394.995087,158.798126 
	C381.354065,158.491135 367.712097,158.217636 354.073486,157.826355 
	C352.678223,157.786346 351.120514,157.327744 349.945557,156.580246 
	C320.913361,138.110321 291.859558,119.672821 262.950623,101.011169 
	C248.007217,91.364731 233.288193,81.367241 218.569885,71.377945 
	C214.746201,68.782829 211.635437,68.896698 207.686813,71.403702 
	C164.305435,98.946693 120.815063,126.317932 77.364006,153.751221 
	C71.414497,157.507507 65.038216,159.411469 57.339653,158.118347 
	C51.462296,157.823181 46.207478,157.961700 40.491180,158.169647 
	C33.025703,158.177689 26.021715,158.116287 18.933739,157.705475 
	C18.177485,156.234711 17.505219,155.113342 16.832952,153.991974 
	C17.372866,154.186005 17.912779,154.380051 18.452692,154.574097 
	C20.972805,151.708740 23.492918,148.843384 26.013029,145.978027 
z"/>
<path fill="#06234E" opacity="1.000000" stroke="none" 
	d="
M52.020527,296.949768 
	C51.047066,298.210358 49.224621,299.471527 49.225380,300.731567 
	C49.240868,326.464386 49.464745,352.197052 49.277184,378.360596 
	C48.278519,379.389130 47.649719,379.986877 47.020920,380.584656 
	C41.999573,380.556976 36.978222,380.529327 31.249063,380.089783 
	C25.608034,379.257568 20.555765,376.982697 15.882937,380.618866 
	C13.247633,380.706024 10.612329,380.793213 7.553111,380.324677 
	C7.396266,374.147797 7.810944,368.529114 7.904907,362.905029 
	C8.316345,338.278748 8.634860,313.650970 9.383314,288.924713 
	C10.185860,287.666351 10.935511,286.509827 10.945081,285.347198 
	C11.035029,274.419678 11.032483,263.490845 10.950573,252.563187 
	C10.941503,251.353043 10.270787,250.147888 9.884088,248.475922 
	C9.861246,227.503265 9.861246,206.995117 9.861246,185.892502 
	C11.352458,185.892502 13.135929,185.893402 14.919399,185.892349 
	C25.554417,185.886093 36.189823,185.923248 46.824059,185.828751 
	C48.557098,185.813339 50.284958,185.215408 52.015209,184.886703 
	C75.818581,185.053970 99.621887,185.298035 123.425392,185.318909 
	C127.795937,185.322739 130.381744,185.514984 130.014481,191.268341 
	C129.402328,200.857758 129.847519,210.514694 129.847519,220.927689 
	C102.669708,220.927689 76.039482,220.927689 49.290638,220.927689 
	C49.290638,234.529648 49.290638,247.482407 49.290638,261.184509 
	C70.300537,261.184509 91.187828,261.184509 112.550476,261.655823 
	C113.682655,265.622559 114.705132,269.096527 114.911728,272.618347 
	C115.232452,278.085938 115.013046,283.586243 114.994072,289.072571 
	C114.972878,295.199463 114.202431,295.989380 108.096313,295.995422 
	C91.138351,296.012115 74.180252,295.973694 57.222565,296.042572 
	C55.487350,296.049591 53.754482,296.633514 52.020527,296.949768 
z"/>
<path fill="#07234F" opacity="1.000000" stroke="none" 
	d="
M440.023102,381.218689 
	C404.122192,381.218689 368.221313,381.218689 331.429657,381.218689 
	C331.429657,316.636688 331.429657,251.400986 331.429657,185.834167 
	C344.797516,185.834167 358.703705,185.834167 372.956848,185.834167 
	C372.956848,239.270737 372.956848,292.713318 372.956848,346.943817 
	C395.211761,346.943817 417.128815,346.943817 439.572876,347.445923 
	C440.074249,359.038239 440.048676,370.128448 440.023102,381.218689 
z"/>
<path fill="#F5C56C" opacity="1.000000" stroke="none" 
	d="
M182.073730,107.037201 
	C190.100113,102.330849 198.146790,97.658592 206.141235,92.898613 
	C208.742279,91.349937 211.135071,90.778252 214.019363,92.427452 
	C223.237167,97.698067 232.890427,102.276230 241.776550,108.044510 
	C266.026031,123.785667 289.972534,139.993713 314.020111,156.045212 
	C315.075348,156.749588 315.943329,157.734589 317.879181,159.465897 
	C246.243973,158.340637 175.857941,157.235001 104.346771,156.111694 
	C118.311096,147.263779 131.450684,138.938431 145.171509,130.304901 
	C155.993591,123.932686 166.247528,117.890427 176.449066,111.760956 
	C177.220123,111.297668 177.618515,110.214134 178.190140,109.418915 
	C178.991913,109.079887 179.793686,108.740860 181.024139,108.083534 
	C181.757889,107.606239 181.964859,107.363564 182.073730,107.037201 
z"/>
<path fill="#4B616A" opacity="1.000000" stroke="none" 
	d="
M51.653194,184.700958 
	C50.284958,185.215408 48.557098,185.813339 46.824059,185.828751 
	C36.189823,185.923248 25.554417,185.886093 14.919399,185.892349 
	C13.135929,185.893402 11.352458,185.892502 9.861246,185.892502 
	C9.861246,206.995117 9.861246,227.503265 9.865728,248.951721 
	C9.873090,253.038879 9.948319,256.187653 9.865443,259.332245 
	C9.604582,269.230255 9.284342,279.126678 8.987087,289.023712 
	C8.634860,313.650970 8.316345,338.278748 7.904907,362.905029 
	C7.810944,368.529114 7.396266,374.147797 7.127737,380.207825 
	C6.532407,380.125183 5.433517,379.614563 5.422011,379.080505 
	C5.292814,373.083771 5.324768,367.083405 5.325103,361.084015 
	C5.326518,335.752686 5.333872,310.421356 5.335371,285.090027 
	C5.337343,251.786011 5.335855,218.481995 5.335855,184.515228 
	C20.800568,184.515228 36.045876,184.515228 51.653194,184.700958 
z"/>
<path fill="#3E4E4E" opacity="1.000000" stroke="none" 
	d="
M57.031807,438.670441 
	C56.502399,442.522339 55.972984,446.374207 55.287628,451.360718 
	C61.533882,451.360718 66.958824,451.390991 72.383224,451.349670 
	C75.779770,451.323792 77.401665,452.723816 76.602005,456.279419 
	C67.549896,456.279419 58.496258,456.279419 49.112556,456.279419 
	C49.112556,441.753510 49.112556,427.827972 49.112556,413.331726 
	C50.815929,413.331726 52.420189,413.331726 54.596237,413.739288 
	C58.484283,413.912750 61.800545,413.678650 65.116806,413.444580 
	C67.765343,413.401093 70.427773,413.186951 73.055351,413.400879 
	C74.060219,413.482697 74.985344,414.543884 75.530251,415.617340 
	C72.325348,417.059021 69.597183,418.326141 66.729294,418.933929 
	C64.503403,419.405670 62.097782,419.159302 59.781570,419.042908 
	C56.700871,418.888092 55.023865,420.049225 55.230431,423.739655 
	C54.410496,432.069794 54.410622,432.082581 62.050236,432.007263 
	C64.708054,431.981079 67.365067,431.874359 70.022446,431.804413 
	C70.871841,432.231689 71.721237,432.658966 72.238235,433.612030 
	C70.341682,434.625977 68.681061,434.927490 67.247803,435.668701 
	C66.314224,436.151489 65.711296,437.273621 64.960236,438.109314 
	C64.527122,438.155762 64.094017,438.202179 63.265079,437.790649 
	C60.935398,436.753448 59.001541,436.174225 57.031807,435.584229 
	C57.031807,437.198822 57.031807,437.934631 57.031807,438.670441 
z"/>
<path fill="#2E3E49" opacity="1.000000" stroke="none" 
	d="
M201.041580,414.236969 
	C210.000992,414.236969 218.960403,414.236969 228.229462,414.236969 
	C228.229462,416.284912 228.229462,417.999115 228.229462,420.099487 
	C221.184341,420.099487 214.413208,420.099487 207.269577,420.099487 
	C207.269577,424.171509 207.269577,427.869720 207.269577,432.134155 
	C213.223892,431.857208 219.126740,431.582611 225.495987,431.286346 
	C225.628525,433.088318 225.743210,434.647675 225.879333,436.498413 
	C219.634995,437.024567 213.723511,437.522675 207.441711,438.052002 
	C207.441711,442.117889 207.441711,445.819672 207.441711,450.742737 
	C214.239441,450.742737 220.679276,450.742737 227.331741,451.158478 
	C225.522568,452.053284 223.517899,452.628845 221.475464,452.991913 
	C216.853928,453.813354 212.213760,454.529938 207.581161,455.289185 
	C207.230408,455.288269 206.879669,455.287415 206.135513,454.944122 
	C204.102295,454.356689 202.462479,454.111664 200.822662,453.866638 
	C200.748093,441.327667 200.673523,428.788666 200.775055,415.544922 
	C200.981293,414.639069 201.011429,414.438019 201.041580,414.236969 
z"/>
<path fill="#445756" opacity="1.000000" stroke="none" 
	d="
M362.949371,413.988159 
	C364.157227,413.513489 365.359100,412.646362 366.573883,412.627930 
	C374.384399,412.509186 382.201843,412.730133 390.008575,412.522644 
	C394.435608,412.404968 394.758301,415.119232 394.745850,418.300171 
	C394.731232,422.039734 392.145935,421.287628 389.797272,421.133545 
	C387.693237,420.995544 385.573029,421.104523 383.082397,421.104523 
	C383.082397,432.752747 383.082397,444.166595 383.082397,455.852631 
	C380.758850,456.252106 378.763672,456.595154 375.704285,457.121185 
	C375.704285,444.684326 375.704285,432.982452 375.704285,420.950806 
	C373.116425,420.950806 371.491943,420.950806 369.431396,420.537354 
	C371.042755,416.511536 370.065491,414.427185 365.875458,414.025970 
	C364.907745,413.933319 363.925140,413.996613 362.949371,413.988159 
z"/>
<path fill="#3B4E4F" opacity="1.000000" stroke="none" 
	d="
M422.913361,436.718781 
	C420.448669,438.016937 416.619995,434.919006 414.640808,439.580627 
	C413.307434,440.162506 412.399597,440.317291 410.568512,440.629486 
	C412.289642,442.749268 413.618927,444.386414 414.948181,446.023590 
	C415.737488,447.280365 416.526764,448.537170 417.733032,450.074768 
	C418.440277,450.284760 418.730560,450.213959 419.020813,450.143188 
	C423.388916,450.166473 427.757050,450.189728 432.561523,450.571716 
	C432.929047,451.762238 432.860168,452.594025 432.400299,453.347717 
	C423.917389,453.924408 415.825531,454.579224 407.733643,455.234039 
	C407.734680,448.835022 407.735718,442.436005 408.258514,436.174927 
	C408.995178,436.882080 409.210052,437.451294 409.424957,438.020477 
	C409.789154,437.819489 410.153351,437.618500 410.517578,437.417511 
	C409.930237,436.754242 409.342896,436.090973 408.755554,435.427704 
	C408.657898,435.576813 408.560242,435.725922 408.444946,435.459564 
	C408.110260,434.739410 407.793182,434.434753 407.476105,434.130096 
	C407.492432,428.049225 407.508759,421.968384 408.050903,415.458588 
	C417.243988,415.029663 425.911255,415.029663 434.682861,415.029663 
	C434.604797,419.155273 432.925262,420.307770 429.647003,420.068787 
	C426.358856,419.829071 423.037903,420.081055 419.734100,420.001678 
	C416.713348,419.929138 414.954010,421.006744 415.276764,424.314972 
	C415.297577,425.218842 415.318359,426.122681 415.170898,427.774231 
	C414.887939,431.966980 416.710815,432.400269 419.461914,431.390717 
	C420.402863,431.383759 421.343811,431.376801 422.656372,431.890930 
	C422.989777,433.847626 422.951569,435.283203 422.913361,436.718781 
z"/>
<path fill="#354445" opacity="1.000000" stroke="none" 
	d="
M346.362762,428.884277 
	C346.904114,429.712494 347.445496,430.540710 347.707031,431.823914 
	C347.241455,433.399414 346.499603,434.898529 346.962036,435.577667 
	C349.563171,439.397980 349.564789,445.023163 354.770233,447.041077 
	C355.580109,448.768890 356.389984,450.496735 357.014038,452.682587 
	C355.159668,455.577087 353.861023,453.924927 352.601837,452.707825 
	C351.362457,451.509918 350.216492,450.215363 348.979492,448.610565 
	C347.689697,446.193542 346.449951,444.129211 345.686584,442.858124 
	C341.662567,443.296051 338.344299,443.405365 335.150482,444.092773 
	C333.001404,444.555359 331.028259,445.835175 328.976379,446.749329 
	C327.982178,448.271637 326.645874,449.675873 326.070160,451.342743 
	C325.092529,454.173523 323.827728,455.940704 320.404297,454.636566 
	C316.939911,448.441040 322.184784,443.924072 324.159271,438.518250 
	C325.624695,437.928162 327.565491,437.441559 327.544647,437.063171 
	C327.448669,435.322845 326.805115,433.612701 326.358002,431.891754 
	C327.324341,429.387695 328.290680,426.883636 329.807159,424.326172 
	C331.076202,426.527405 332.117279,428.241486 335.007812,427.363281 
	C333.307404,431.808044 331.522522,435.883575 329.689850,440.068237 
	C334.987671,440.068237 339.398560,440.068237 343.926453,440.068237 
	C342.040649,434.927338 340.422180,430.515137 339.187134,426.081329 
	C340.691040,426.779602 341.744781,427.655121 342.952026,428.172241 
	C343.998596,428.620514 345.219116,428.662628 346.362762,428.884277 
z"/>
<path fill="#3F4E4E" opacity="1.000000" stroke="none" 
	d="
M118.019363,450.995575 
	C118.131699,446.976837 114.843155,448.296936 112.259789,447.178253 
	C108.703339,444.807587 105.763626,444.608429 102.953194,447.108337 
	C102.006027,447.184814 101.058868,447.261322 99.456116,447.090637 
	C99.093834,444.910950 99.387131,442.978516 100.154434,441.178864 
	C105.370750,441.311676 110.113060,441.311676 114.855370,441.311676 
	C115.259857,440.850830 115.664352,440.389984 116.068848,439.929169 
	C113.047005,434.621368 110.025154,429.313599 107.214462,423.715729 
	C108.223068,422.024139 109.020515,420.622650 109.817963,419.221161 
	C108.694107,418.841705 107.174850,417.818878 106.528397,418.216187 
	C105.166756,419.053009 104.262566,420.634155 103.170654,421.909851 
	C104.166931,422.641235 105.163223,423.372620 106.020447,424.432739 
	C103.952965,428.568024 102.024544,432.374512 100.074142,435.827759 
	C99.707558,434.657990 99.362938,433.841522 99.011734,432.623871 
	C98.604385,430.793365 98.203629,429.363983 97.802872,427.934631 
	C99.793625,424.186646 101.494141,420.241669 103.863670,416.750793 
	C105.889595,413.766174 110.738541,414.210175 112.530838,417.385803 
	C114.297462,420.515930 115.608620,423.903107 116.842087,427.794647 
	C117.499069,434.112640 118.433578,439.813477 119.404831,445.738495 
	C121.137619,445.833191 122.597923,445.912964 124.058235,445.992767 
	C124.407936,446.663605 124.757629,447.334473 124.995255,448.582031 
	C122.595253,449.771057 120.307312,450.383331 118.019363,450.995575 
z"/>
<path fill="#394748" opacity="1.000000" stroke="none" 
	d="
M142.063766,415.345947 
	C145.908096,414.888916 146.962479,416.930817 146.928177,420.391937 
	C146.831314,430.166443 146.894302,439.942505 146.894302,449.965759 
	C150.303635,450.297058 152.759369,450.535706 155.611969,451.252625 
	C156.673416,453.159882 157.338013,454.588928 158.002609,456.017944 
	C152.476379,456.227448 146.950134,456.436920 140.677734,456.459534 
	C139.680542,456.172058 139.429520,456.071472 139.178482,455.970886 
	C139.135986,455.233887 139.093491,454.496887 139.480820,453.273102 
	C140.198441,446.497101 141.104446,440.158020 140.602188,433.932526 
	C140.088028,427.559631 139.085205,421.359863 142.063766,415.345947 
z"/>
<path fill="#445B5B" opacity="1.000000" stroke="none" 
	d="
M8.914083,455.908875 
	C6.035692,456.631927 4.721334,455.906158 4.782192,452.547607 
	C4.998436,440.613953 4.896636,428.674683 5.087396,416.740265 
	C5.102967,415.766113 6.420689,414.812805 7.575627,414.321716 
	C10.015049,416.530731 12.012192,418.267822 13.818932,420.317657 
	C10.912828,424.815491 9.792944,429.181580 11.719574,433.958069 
	C10.268935,434.498779 9.218105,435.019836 8.167274,435.540894 
	C8.811930,436.626465 9.197751,438.141144 10.150550,438.715881 
	C12.837604,440.336700 15.518585,438.573792 16.399904,435.069458 
	C18.562384,435.050018 20.296574,435.106750 21.972015,435.523987 
	C20.914045,438.059570 20.423109,440.163849 23.862989,440.080841 
	C25.885418,440.032013 27.893211,439.376892 29.907589,438.994446 
	C30.257751,440.416290 30.607916,441.838165 30.747318,443.911743 
	C29.611441,446.434814 28.686323,448.306183 27.761209,450.177521 
	C27.196224,449.405243 26.506290,448.695068 26.086769,447.850555 
	C23.595007,442.834717 19.953936,439.906769 13.216324,441.047913 
	C11.285751,443.255432 9.654078,445.273254 9.153709,447.540741 
	C8.563039,450.217407 8.950611,453.109924 8.914083,455.908875 
z"/>
<path fill="#E3F3F7" opacity="1.000000" stroke="none" 
	d="
M27.718597,388.996063 
	C32.431351,388.842346 36.482582,389.730255 37.539536,394.357452 
	C38.240604,397.426697 33.439068,399.845459 27.883425,400.027771 
	C21.321983,400.243103 14.753480,400.645966 10.631371,394.062500 
	C9.915253,392.918762 9.728967,391.443268 9.297953,390.121033 
	C10.476642,389.748413 11.647749,389.085114 12.835348,389.054138 
	C17.639881,388.928864 22.449493,388.998260 27.718597,388.996063 
z"/>
<path fill="#D3E4E7" opacity="1.000000" stroke="none" 
	d="
M19.017725,158.054871 
	C26.021715,158.116287 33.025703,158.177689 40.489281,158.366638 
	C40.948864,158.494171 41.033939,158.878830 41.033939,158.878830 
	C37.501400,159.239822 33.948986,159.469315 30.441999,159.999374 
	C27.044277,160.512955 23.659739,161.211227 20.344122,162.105423 
	C19.459909,162.343857 18.117462,163.807312 18.270163,164.340195 
	C18.562042,165.358780 19.669706,166.695908 20.627613,166.871658 
	C24.013172,167.492813 27.480822,167.658340 30.912859,168.037262 
	C33.103760,168.279160 35.286751,168.592728 38.848534,169.051163 
	C33.348202,173.141769 28.847635,170.588074 24.561371,170.630066 
	C23.434475,170.641098 22.229149,169.842728 21.185740,170.049942 
	C12.202513,171.834106 8.041016,167.078476 6.477897,158.776154 
	C10.914062,158.266937 14.965893,158.160904 19.017725,158.054871 
z"/>
<path fill="#394748" opacity="1.000000" stroke="none" 
	d="
M281.918701,415.008484 
	C283.033600,414.219269 284.131958,412.775269 285.266144,412.746582 
	C292.919342,412.552887 300.580231,412.685059 308.238434,412.658325 
	C312.763214,412.642548 314.154541,414.855042 312.928589,419.360718 
	C308.729187,419.620422 304.475067,419.883514 299.456665,419.965332 
	C297.100952,417.069122 294.961151,416.764557 291.930878,417.427246 
	C288.708069,418.132050 285.270660,417.855499 281.926941,418.007446 
	C281.860291,417.556427 281.793640,417.105377 282.084106,416.311584 
	C282.678986,415.851593 282.916748,415.734375 283.154541,415.617157 
	C282.742584,415.414246 282.330658,415.211365 281.918701,415.008484 
z"/>
<path fill="#E5F5F8" opacity="1.000000" stroke="none" 
	d="
M70.018799,431.408997 
	C67.365067,431.874359 64.708054,431.981079 62.050236,432.007263 
	C54.410622,432.082581 54.410496,432.069794 55.653130,423.602448 
	C57.363319,423.021851 58.696167,423.198547 59.952446,422.964447 
	C65.279266,421.971710 70.583351,420.856995 75.895737,419.786865 
	C76.390404,423.012695 75.887222,425.522186 72.317413,426.960052 
	C71.188850,427.414642 70.762741,429.613159 70.018799,431.408997 
z"/>
<path fill="#435152" opacity="1.000000" stroke="none" 
	d="
M250.013962,436.963989 
	C249.024811,436.390930 248.017456,435.846954 247.049362,435.240326 
	C238.760590,430.046600 238.180786,423.653229 245.634766,416.404053 
	C245.984680,418.792938 245.512451,421.272034 248.988098,420.997498 
	C248.757263,427.932495 249.551910,429.115509 255.841324,431.497772 
	C258.135254,432.366669 260.382202,433.359497 262.706787,434.878082 
	C261.857025,435.608429 260.808044,436.126953 260.069305,435.841736 
	C256.436340,434.439178 252.885712,432.823273 248.550262,430.957458 
	C249.262024,433.878265 249.637985,435.421112 250.013962,436.963989 
z"/>
<path fill="#3A4647" opacity="1.000000" stroke="none" 
	d="
M14.009331,420.004913 
	C12.012192,418.267822 10.015049,416.530731 8.013268,414.428894 
	C12.938666,413.981812 18.152773,412.869141 22.713432,414.126526 
	C26.729416,415.233765 30.056812,418.936707 33.558372,421.660400 
	C33.910168,421.934021 33.362659,423.363800 32.857170,424.575684 
	C31.295397,424.650238 30.108948,424.406158 28.636467,423.965759 
	C26.218431,422.580780 24.086428,421.392090 21.525208,420.154449 
	C19.084011,420.144165 17.072031,420.182800 14.806049,420.125183 
	C14.371141,420.020905 14.190233,420.012909 14.009331,420.004913 
z"/>
<path fill="#263443" opacity="1.000000" stroke="none" 
	d="
M249.332245,420.834595 
	C245.512451,421.272034 245.984680,418.792938 245.938553,416.241638 
	C251.242691,410.427032 257.533783,410.881622 263.588287,413.749390 
	C265.239777,414.531586 265.595154,418.050171 266.386871,419.935608 
	C260.361328,420.201019 255.018845,420.436371 249.332245,420.834595 
z"/>
<path fill="#6F9792" opacity="1.000000" stroke="none" 
	d="
M415.664185,424.186310 
	C414.954010,421.006744 416.713348,419.929138 419.734100,420.001678 
	C423.037903,420.081055 426.358856,419.829071 429.647003,420.068787 
	C432.925262,420.307770 434.604797,419.155273 434.682861,415.029663 
	C425.911255,415.029663 417.243988,415.029663 408.075928,415.001831 
	C408.341217,414.348694 409.097473,413.195129 409.875061,413.180603 
	C417.023254,413.046722 424.177826,412.996857 431.324646,413.168854 
	C434.416504,413.243225 436.961487,413.922028 436.801422,418.312592 
	C436.638062,422.793640 434.078491,422.868103 430.879730,423.019623 
	C425.931732,423.253876 420.993835,423.700867 415.664185,424.186310 
z"/>
<path fill="#314651" opacity="1.000000" stroke="none" 
	d="
M398.413818,159.021545 
	C400.354614,157.608200 402.702667,156.301270 405.136505,154.946579 
	C403.561401,152.131958 402.315643,149.905914 401.053040,147.323624 
	C407.445862,150.755112 413.855560,154.542847 420.265228,158.330582 
	C420.198151,158.596375 420.131042,158.862152 420.063934,159.127945 
	C412.983002,159.127945 405.902039,159.127945 398.413818,159.021545 
z"/>
<path fill="#1A2B38" opacity="1.000000" stroke="none" 
	d="
M346.332031,428.497131 
	C345.219116,428.662628 343.998596,428.620514 342.952026,428.172241 
	C341.744781,427.655121 340.691040,426.779602 338.904022,425.964417 
	C337.132751,426.244110 336.028046,426.619080 334.923370,426.994080 
	C332.117279,428.241486 331.076202,426.527405 330.075073,424.096100 
	C330.123901,422.823944 330.454926,421.728455 331.319336,420.286896 
	C332.290710,419.475952 332.820465,419.068451 333.152374,418.537292 
	C336.149078,413.741211 336.954590,413.761658 340.138214,418.199493 
	C341.011017,419.416077 342.622498,420.102753 343.895020,421.032623 
	C344.697113,423.391724 345.499207,425.750854 346.332031,428.497131 
z"/>
<path fill="#4F6261" opacity="1.000000" stroke="none" 
	d="
M97.513062,428.132690 
	C98.203629,429.363983 98.604385,430.793365 98.956528,432.986206 
	C96.832794,439.499969 94.757690,445.250244 92.243782,452.216400 
	C95.096741,450.225983 96.632706,449.154358 98.168671,448.082764 
	C97.533287,454.904205 96.117615,456.206116 89.467827,455.867798 
	C89.438705,445.940887 93.662697,437.226501 97.513062,428.132690 
z"/>
<path fill="#222F3C" opacity="1.000000" stroke="none" 
	d="
M250.243698,437.228882 
	C249.637985,435.421112 249.262024,433.878265 248.550262,430.957458 
	C252.885712,432.823273 256.436340,434.439178 260.069305,435.841736 
	C260.808044,436.126953 261.857025,435.608429 262.902466,435.171753 
	C263.952301,435.348785 264.862610,435.814453 265.912720,436.935333 
	C265.871765,440.593201 265.691071,443.595825 265.455505,447.510254 
	C263.235596,446.083710 262.339966,445.508148 261.444336,444.932587 
	C260.321930,443.573303 259.441772,441.823395 258.022308,440.943085 
	C255.689987,439.496643 253.007996,438.614075 250.243698,437.228882 
z"/>
<path fill="#323C3F" opacity="1.000000" stroke="none" 
	d="
M28.922497,424.162079 
	C30.108948,424.406158 31.295397,424.650238 32.807728,424.919250 
	C35.373001,426.727936 35.888641,431.947174 33.957233,434.494202 
	C32.881470,435.912933 31.575447,437.157074 30.140387,438.737183 
	C27.893211,439.376892 25.885418,440.032013 23.862989,440.080841 
	C20.423109,440.163849 20.914045,438.059570 22.313246,435.450317 
	C23.545195,434.425293 24.377161,433.834351 25.202682,433.234802 
	C25.196239,433.226166 25.218323,433.233124 25.588364,433.197113 
	C29.859547,431.120941 28.921162,427.486755 28.922497,424.162079 
z"/>
<path fill="#F1F3E8" opacity="1.000000" stroke="none" 
	d="
M178.022644,109.147369 
	C177.618515,110.214134 177.220123,111.297668 176.449066,111.760956 
	C166.247528,117.890427 155.993591,123.932686 145.403076,130.063370 
	C144.139206,126.290688 146.989838,124.934105 149.510788,123.343140 
	C153.783752,120.646477 157.870193,117.585922 162.357346,115.315254 
	C167.334854,112.796432 172.673645,110.991554 178.022644,109.147369 
z"/>
<path fill="#435152" opacity="1.000000" stroke="none" 
	d="
M261.321106,445.304077 
	C262.339966,445.508148 263.235596,446.083710 265.455505,447.510254 
	C265.691071,443.595825 265.871765,440.593201 266.071716,437.203064 
	C272.087524,440.075592 272.591705,446.975769 266.974731,452.216034 
	C265.222046,453.851166 262.828796,454.799683 260.360229,455.675720 
	C259.000336,454.209106 258.008972,453.129303 257.017609,452.049500 
	C258.411041,449.924866 259.804474,447.800232 261.321106,445.304077 
z"/>
<path fill="#0D2141" opacity="1.000000" stroke="none" 
	d="
M52.479588,297.041077 
	C53.754482,296.633514 55.487350,296.049591 57.222565,296.042572 
	C74.180252,295.973694 91.138351,296.012115 108.096313,295.995422 
	C114.202431,295.989380 114.972878,295.199463 114.994072,289.072571 
	C115.013046,283.586243 115.232452,278.085938 114.911728,272.618347 
	C114.705132,269.096527 113.682655,265.622559 113.009354,261.753052 
	C115.005417,260.809052 116.057663,261.220123 116.038795,263.661865 
	C115.954025,274.631104 116.001854,285.601349 116.001854,297.132385 
	C94.783951,297.132385 73.861298,297.132385 52.479588,297.041077 
z"/>
<path fill="#87ABB9" opacity="1.000000" stroke="none" 
	d="
M440.267548,381.488281 
	C440.048676,370.128448 440.074249,359.038239 440.038757,347.483948 
	C440.969910,348.272675 442.796844,349.509338 442.821411,350.780792 
	C443.006470,360.362793 442.887695,369.952728 442.681061,379.536224 
	C442.664764,380.291992 441.267487,381.018036 440.267548,381.488281 
z"/>
<path fill="#536464" opacity="1.000000" stroke="none" 
	d="
M141.648422,415.229675 
	C139.085205,421.359863 140.088028,427.559631 140.602188,433.932526 
	C141.104446,440.158020 140.198441,446.497101 139.531403,452.906616 
	C138.822586,441.557373 138.518112,430.087067 138.142090,418.619080 
	C138.067841,416.354828 138.201660,414.522980 141.648422,415.229675 
z"/>
<path fill="#465554" opacity="1.000000" stroke="none" 
	d="
M292.175140,440.024689 
	C292.024261,434.652679 291.873383,429.280701 292.119232,423.640015 
	C294.636688,424.577240 296.757385,425.783173 298.878113,426.989105 
	C298.940216,429.374908 299.002350,431.760742 298.567596,434.596924 
	C297.379883,436.125214 296.481873,437.126953 296.050354,438.300232 
	C295.505920,439.780609 295.342010,441.400970 295.009766,442.601379 
	C294.062073,441.502808 293.118591,440.763763 292.175140,440.024689 
z"/>
<path fill="#4A6765" opacity="1.000000" stroke="none" 
	d="
M207.851349,455.577332 
	C212.213760,454.529938 216.853928,453.813354 221.475464,452.991913 
	C223.517899,452.628845 225.522568,452.053284 227.767319,451.260895 
	C228.761429,452.588867 229.532608,454.230194 230.914902,457.172150 
	C222.239899,456.674835 215.180710,456.270142 207.851349,455.577332 
z"/>
<path fill="#405360" opacity="1.000000" stroke="none" 
	d="
M18.933739,157.705490 
	C14.965893,158.160904 10.914062,158.266937 6.400657,158.442291 
	C6.172025,157.775146 6.177982,156.649887 6.672390,156.361237 
	C12.827548,152.767502 19.053658,149.295319 25.637283,145.884949 
	C23.492918,148.843384 20.972805,151.708740 18.452692,154.574097 
	C17.912779,154.380051 17.372866,154.186005 16.832952,153.991974 
	C17.505219,155.113342 18.177485,156.234711 18.933739,157.705490 
z"/>
<path fill="#6F9792" opacity="1.000000" stroke="none" 
	d="
M407.866516,455.621643 
	C415.825531,454.579224 423.917389,453.924408 432.538635,453.609070 
	C436.513641,454.058899 434.141479,451.257782 435.005798,450.076355 
	C435.490051,451.329315 436.386017,452.599792 436.333771,453.829956 
	C436.288574,454.894470 435.155457,456.823242 434.522980,456.815216 
	C425.679779,456.703033 416.839996,456.323608 407.866516,455.621643 
z"/>
<path fill="#627E7B" opacity="1.000000" stroke="none" 
	d="
M75.906677,419.400635 
	C70.583351,420.856995 65.279266,421.971710 59.952446,422.964447 
	C58.696167,423.198547 57.363319,423.021851 55.642998,423.171326 
	C55.023865,420.049225 56.700871,418.888092 59.781570,419.042908 
	C62.097782,419.159302 64.503403,419.405670 66.729294,418.933929 
	C69.597183,418.326141 72.325348,417.059021 75.473183,416.009796 
	C75.860985,416.967255 75.889297,417.990845 75.906677,419.400635 
z"/>
<path fill="#465554" opacity="1.000000" stroke="none" 
	d="
M329.437561,446.840637 
	C331.028259,445.835175 333.001404,444.555359 335.150482,444.092773 
	C338.344299,443.405365 341.662567,443.296051 345.686584,442.858124 
	C346.449951,444.129211 347.689697,446.193542 348.734863,448.618713 
	C348.540283,448.979523 348.051361,448.981354 348.051361,448.981354 
	C344.803284,448.308167 341.580841,447.420349 338.299194,447.027802 
	C335.534790,446.697113 332.701477,446.941895 329.437561,446.840637 
z"/>
<path fill="#607776" opacity="1.000000" stroke="none" 
	d="
M423.316071,436.864471 
	C422.951569,435.283203 422.989777,433.847626 422.999329,431.978790 
	C426.030640,431.303650 429.090637,431.061798 432.036377,430.828979 
	C433.650818,437.460999 433.215546,437.946014 427.186401,437.179749 
	C426.041840,437.034302 424.875214,437.062256 423.316071,436.864471 
z"/>
<path fill="#485C5B" opacity="1.000000" stroke="none" 
	d="
M124.064568,445.602966 
	C122.597923,445.912964 121.137619,445.833191 119.404831,445.738495 
	C118.433578,439.813477 117.499069,434.112640 116.874649,428.170105 
	C119.480125,433.690033 121.775513,439.451599 124.064568,445.602966 
z"/>
<path fill="#3A4647" opacity="1.000000" stroke="none" 
	d="
M27.768181,450.151672 
	C28.686323,448.306183 29.611441,446.434814 30.771694,444.279419 
	C33.018414,447.891205 35.029995,451.786987 37.041576,455.682800 
	C36.615986,456.043182 36.190395,456.403534 35.764805,456.763916 
	C34.429012,456.563293 33.093220,456.362671 31.385572,455.669403 
	C29.932171,453.509094 28.850622,451.841400 27.769077,450.173737 
	C27.769079,450.173737 27.775154,450.125824 27.768181,450.151672 
z"/>
<path fill="#568982" opacity="1.000000" stroke="none" 
	d="
M9.339166,456.034912 
	C8.950611,453.109924 8.563039,450.217407 9.153709,447.540741 
	C9.654078,445.273254 11.285751,443.255432 12.793558,441.093018 
	C13.146328,444.881378 13.103410,448.703796 13.105494,452.526215 
	C13.106731,454.794220 12.628842,456.557587 9.339166,456.034912 
z"/>
<path fill="#485C5B" opacity="1.000000" stroke="none" 
	d="
M117.926224,451.394592 
	C120.307312,450.383331 122.595253,449.771057 125.057892,448.864990 
	C126.010757,450.953125 126.788918,453.334991 127.796051,456.417755 
	C125.462112,456.417755 124.050484,456.417755 122.119980,455.984375 
	C120.470520,455.372650 119.339958,455.194305 118.209396,455.015930 
	C118.083954,453.941833 117.958519,452.867737 117.926224,451.394592 
z"/>
<path fill="#4F6261" opacity="1.000000" stroke="none" 
	d="
M158.384003,456.142792 
	C157.338013,454.588928 156.673416,453.159882 156.004791,451.363831 
	C157.790787,450.987579 159.582428,450.925140 161.370529,450.979614 
	C165.974167,451.119873 165.973541,451.140594 165.854889,456.764557 
	C163.476685,456.597870 161.121048,456.432770 158.384003,456.142792 
z"/>
<path fill="#323C3F" opacity="1.000000" stroke="none" 
	d="
M98.427643,448.001282 
	C96.632706,449.154358 95.096741,450.225983 92.243782,452.216400 
	C94.757690,445.250244 96.832794,439.499969 98.963112,433.387390 
	C99.362938,433.841522 99.707558,434.657990 100.068268,436.235901 
	C99.949707,438.346893 99.815063,439.696472 99.680420,441.046051 
	C99.387131,442.978516 99.093834,444.910950 99.109390,446.999603 
	C99.174362,447.410461 98.930489,447.665131 98.427643,448.001282 
z"/>
<path fill="#465554" opacity="1.000000" stroke="none" 
	d="
M281.814575,418.406555 
	C285.270660,417.855499 288.708069,418.132050 291.930878,417.427246 
	C294.961151,416.764557 297.100952,417.069122 299.019684,419.983582 
	C299.282623,420.592590 299.218323,421.002075 298.692352,421.692078 
	C296.125641,421.990021 294.020599,422.007355 291.915558,422.024689 
	C289.772308,421.597778 287.590179,421.304382 285.499847,420.695801 
	C284.163788,420.306763 282.963379,419.451752 281.814575,418.406555 
z"/>
<path fill="#0D2141" opacity="1.000000" stroke="none" 
	d="
M189.480865,381.875977 
	C189.613281,381.537262 190.206955,381.063232 190.799515,381.064575 
	C207.295013,381.102905 223.790390,381.189423 240.621429,381.501953 
	C223.951889,381.811340 206.946732,381.886810 189.480865,381.875977 
z"/>
<path fill="#323C3F" opacity="1.000000" stroke="none" 
	d="
M292.112183,440.472961 
	C293.118591,440.763763 294.062073,441.502808 295.007080,442.956726 
	C295.339478,444.781891 295.670349,445.892151 296.011841,447.364319 
	C296.963196,448.491425 297.903900,449.256592 298.844604,450.021790 
	C298.886780,450.762054 298.928925,451.502289 298.554199,452.617676 
	C296.837250,453.278137 295.537201,453.563477 294.811951,453.722656 
	C293.892242,452.345917 293.096619,451.154938 292.301025,449.963928 
	C292.217072,446.949677 292.133118,443.935455 292.112183,440.472961 
z"/>
<path fill="#354445" opacity="1.000000" stroke="none" 
	d="
M256.595184,452.048920 
	C258.008972,453.129303 259.000336,454.209106 259.994995,455.641785 
	C255.160309,455.544556 250.322311,455.094452 245.445984,454.091217 
	C247.589828,453.075073 249.771988,452.612061 251.954163,452.149048 
	C253.360367,452.115479 254.766556,452.081909 256.595184,452.048920 
z"/>
<path fill="#556A67" opacity="1.000000" stroke="none" 
	d="
M348.027161,449.412048 
	C348.051361,448.981354 348.540283,448.979523 348.784912,448.971375 
	C350.216492,450.215363 351.362457,451.509918 352.601837,452.707825 
	C353.861023,453.924927 355.159668,455.577087 357.150208,453.022522 
	C357.995239,454.047394 358.518311,455.190369 359.063049,456.380737 
	C349.162018,458.086700 348.155304,457.469543 348.027161,449.412048 
z"/>
<path fill="#324042" opacity="1.000000" stroke="none" 
	d="
M362.836060,414.433716 
	C363.925140,413.996613 364.907745,413.933319 365.875458,414.025970 
	C370.065491,414.427185 371.042755,416.511536 368.984009,420.453094 
	C367.025391,420.782288 365.078125,420.782288 362.722717,420.782288 
	C362.722717,418.718018 362.722717,416.798645 362.836060,414.433716 
z"/>
<path fill="#4D5A61" opacity="1.000000" stroke="none" 
	d="
M343.911804,420.667175 
	C342.622498,420.102753 341.011017,419.416077 340.138214,418.199493 
	C336.954590,413.761658 336.149078,413.741211 333.152374,418.537292 
	C332.820465,419.068451 332.290710,419.475952 331.509460,419.995575 
	C331.995544,417.541443 330.488373,413.877014 334.654541,413.019257 
	C340.619934,411.791046 342.357941,415.937897 343.911804,420.667175 
z"/>
<path fill="#435152" opacity="1.000000" stroke="none" 
	d="
M251.690002,451.884338 
	C249.771988,452.612061 247.589828,453.075073 245.164658,453.837799 
	C241.827393,453.028931 238.742554,451.913055 239.657715,447.551331 
	C243.693878,448.946655 247.559845,450.283112 251.690002,451.884338 
z"/>
<path fill="#4F6261" opacity="1.000000" stroke="none" 
	d="
M354.795288,446.677673 
	C349.564789,445.023163 349.563171,439.397980 346.962036,435.577667 
	C346.499603,434.898529 347.241455,433.399414 347.730743,432.135284 
	C350.296295,436.765839 352.558319,441.540039 354.795288,446.677673 
z"/>
<path fill="#324042" opacity="1.000000" stroke="none" 
	d="
M296.001221,447.002411 
	C295.670349,445.892151 295.339478,444.781891 295.011292,443.316284 
	C295.342010,441.400970 295.505920,439.780609 296.050354,438.300232 
	C296.481873,437.126953 297.379883,436.125214 298.463257,435.033234 
	C298.900085,439.367065 298.944397,443.714966 298.614777,448.478882 
	C297.494324,448.264038 296.747772,447.633209 296.001221,447.002411 
z"/>
<path fill="#405360" opacity="1.000000" stroke="none" 
	d="
M41.494537,158.807281 
	C41.033939,158.878830 40.948864,158.494171 40.950764,158.297195 
	C46.207478,157.961700 51.462296,157.823181 56.915367,157.998947 
	C52.060795,158.454056 47.007961,158.594879 41.494537,158.807281 
z"/>
<path fill="#4B616A" opacity="1.000000" stroke="none" 
	d="
M16.342424,380.735870 
	C20.555765,376.982697 25.608034,379.257568 30.796944,380.017883 
	C26.302391,380.522858 21.552151,380.687866 16.342424,380.735870 
z"/>
<path fill="#445B5B" opacity="1.000000" stroke="none" 
	d="
M65.271454,438.342407 
	C65.711296,437.273621 66.314224,436.151489 67.247803,435.668701 
	C68.681061,434.927490 70.341682,434.625977 72.271530,433.990204 
	C72.752007,435.232269 72.866768,436.621979 73.028091,438.575500 
	C70.261200,438.575500 67.921936,438.575500 65.271454,438.342407 
z"/>
<path fill="#394748" opacity="1.000000" stroke="none" 
	d="
M291.830414,422.269562 
	C294.020599,422.007355 296.125641,421.990021 298.597168,421.988281 
	C298.992218,423.392792 299.020782,424.781708 298.963715,426.579865 
	C296.757385,425.783173 294.636688,424.577240 292.229614,423.182495 
	C291.877228,422.833923 291.811249,422.674194 291.830414,422.269562 
z"/>
<path fill="#465554" opacity="1.000000" stroke="none" 
	d="
M292.202576,450.395325 
	C293.096619,451.154938 293.892242,452.345917 294.811951,453.722656 
	C295.537201,453.563477 296.837250,453.278137 298.488373,452.983948 
	C299.349152,458.916290 294.998810,455.144806 292.104156,456.769318 
	C292.104156,454.236938 292.104156,452.531830 292.202576,450.395325 
z"/>
<path fill="#536464" opacity="1.000000" stroke="none" 
	d="
M326.180481,432.160706 
	C326.805115,433.612701 327.448669,435.322845 327.544647,437.063171 
	C327.565491,437.441559 325.624695,437.928162 324.357971,438.210205 
	C324.753387,436.180206 325.378204,434.304932 326.180481,432.160706 
z"/>
<path fill="#485C5B" opacity="1.000000" stroke="none" 
	d="
M103.290833,447.290680 
	C105.763626,444.608429 108.703339,444.807587 111.924042,447.007568 
	C109.292480,447.375549 106.460480,447.424286 103.290833,447.290680 
z"/>
<path fill="#627E7B" opacity="1.000000" stroke="none" 
	d="
M64.668091,413.309021 
	C61.800545,413.678650 58.484283,413.912750 55.020733,413.803284 
	C57.988747,413.364319 61.104057,413.268890 64.668091,413.309021 
z"/>
<path fill="#445B5B" opacity="1.000000" stroke="none" 
	d="
M57.416317,438.613647 
	C57.031807,437.934631 57.031807,437.198822 57.031807,435.584229 
	C59.001541,436.174225 60.935398,436.753448 62.949196,437.698975 
	C61.286366,438.229126 59.543594,438.393005 57.416317,438.613647 
z"/>
<path fill="#50706E" opacity="1.000000" stroke="none" 
	d="
M415.048828,445.599670 
	C413.618927,444.386414 412.289642,442.749268 410.568512,440.629486 
	C412.399597,440.317291 413.307434,440.162506 414.577454,439.991028 
	C415.009613,441.708160 415.079559,443.441956 415.048828,445.599670 
z"/>
<path fill="#4A6765" opacity="1.000000" stroke="none" 
	d="
M200.669418,454.157715 
	C202.462479,454.111664 204.102295,454.356689 205.888885,454.845093 
	C204.245407,455.554626 202.455154,456.020752 200.516174,456.525604 
	C200.516174,456.029816 200.516174,455.239319 200.669418,454.157715 
z"/>
<path fill="#445B5B" opacity="1.000000" stroke="none" 
	d="
M27.777920,450.530518 
	C28.850622,451.841400 29.932171,453.509094 31.015343,455.564941 
	C29.940231,454.264557 28.863499,452.575928 27.777920,450.530518 
z"/>
<path fill="#6F9792" opacity="1.000000" stroke="none" 
	d="
M419.258240,431.148560 
	C416.710815,432.400269 414.887939,431.966980 415.137726,428.111938 
	C416.533386,428.770111 417.793976,429.838257 419.258240,431.148560 
z"/>
<path fill="#50706E" opacity="1.000000" stroke="none" 
	d="
M434.647308,449.987000 
	C434.141479,451.257782 436.513641,454.058899 432.929657,453.687164 
	C432.860168,452.594025 432.929047,451.762238 432.958862,450.652405 
	C433.376160,450.215424 433.832489,450.056519 434.647308,449.987000 
z"/>
<path fill="#4B616A" opacity="1.000000" stroke="none" 
	d="
M47.235527,380.816650 
	C47.649719,379.986877 48.278519,379.389130 49.199612,378.811707 
	C48.811314,379.570923 48.130726,380.309784 47.235527,380.816650 
z"/>
<path fill="#465554" opacity="1.000000" stroke="none" 
	d="
M296.011841,447.364319 
	C296.747772,447.633209 297.494324,448.264038 298.539856,448.936768 
	C298.889801,449.152252 298.940826,449.325836 298.918213,449.760620 
	C297.903900,449.256592 296.963196,448.491425 296.011841,447.364319 
z"/>
<path fill="#50706E" opacity="1.000000" stroke="none" 
	d="
M408.752014,435.456573 
	C409.342896,436.090973 409.930237,436.754242 410.517578,437.417511 
	C410.153351,437.618500 409.789154,437.819489 409.424957,438.020477 
	C409.210052,437.451294 408.995178,436.882080 408.736969,435.905640 
	C408.693665,435.498352 408.748505,435.485443 408.752014,435.456573 
z"/>
<path fill="#3F4E4E" opacity="1.000000" stroke="none" 
	d="
M118.282898,455.386414 
	C119.339958,455.194305 120.470520,455.372650 121.786736,455.844543 
	C120.767059,456.011017 119.561729,455.883972 118.282898,455.386414 
z"/>
<path fill="#314651" opacity="1.000000" stroke="none" 
	d="
M395.320923,158.899979 
	C395.556030,158.700882 396.116943,158.603638 396.837372,158.695251 
	C396.546844,158.923355 396.096802,158.962601 395.320923,158.899979 
z"/>
<path fill="#465554" opacity="1.000000" stroke="none" 
	d="
M281.822266,415.255463 
	C282.330658,415.211365 282.742584,415.414246 283.154541,415.617157 
	C282.916748,415.734375 282.678986,415.851593 282.184479,415.980804 
	C281.860443,415.829346 281.793121,415.665894 281.822266,415.255463 
z"/>
<path fill="#F1F3E8" opacity="1.000000" stroke="none" 
	d="
M181.845047,107.106461 
	C181.964859,107.363564 181.757889,107.606239 181.214233,107.814102 
	C181.113007,107.562843 181.326584,107.333763 181.845047,107.106461 
z"/>
<path fill="#50706E" opacity="1.000000" stroke="none" 
	d="
M418.773010,450.021515 
	C418.730560,450.213959 418.440277,450.284760 418.068420,450.188965 
	C418.166290,449.981537 418.345734,449.940704 418.773010,450.021515 
z"/>
<path fill="#50706E" opacity="1.000000" stroke="none" 
	d="
M407.423126,434.416443 
	C407.793182,434.434753 408.110260,434.739410 408.205292,435.341034 
	C407.778870,435.326263 407.574493,435.014557 407.423126,434.416443 
z"/>
<path fill="#4A6765" opacity="1.000000" stroke="none" 
	d="
M200.771271,414.177277 
	C201.011429,414.438019 200.981293,414.639069 200.834869,415.122925 
	C200.646042,414.976349 200.573486,414.546967 200.771271,414.177277 
z"/>
<path fill="#536464" opacity="1.000000" stroke="none" 
	d="
M139.137405,456.255402 
	C139.429520,456.071472 139.680542,456.172058 140.255539,456.519592 
	C140.085129,456.691010 139.590729,456.615479 139.137405,456.255402 
z"/>
<path fill="#FAFAFB" opacity="1.000000" stroke="none" 
	d="
M200.035156,293.011810 
	C213.476562,293.327728 227.014343,292.771240 240.328110,294.242401 
	C250.525711,295.369202 258.874115,306.128479 259.426971,317.170502 
	C260.313324,334.873413 248.388824,344.888458 235.052307,347.226318 
	C232.926178,347.599030 230.816376,348.064880 227.892883,348.622192 
	C218.178162,348.756714 209.269592,348.756714 200.035156,348.756714 
	C200.035156,329.876892 200.035156,311.444336 200.035156,293.011810 
z"/>
<path fill="#F6F9F9" opacity="1.000000" stroke="none" 
	d="
M200.014542,248.012619 
	C200.067032,247.247787 200.119537,246.482941 200.143433,244.886597 
	C200.108810,235.387009 200.102814,226.718964 200.096802,218.050903 
	C212.220825,218.353516 224.369568,218.281281 236.460999,219.078430 
	C245.972778,219.705505 254.617218,231.492081 249.876175,243.173126 
	C245.638351,253.614441 238.933228,260.487976 226.966400,260.545349 
	C218.355484,260.586639 209.744217,260.553406 200.948883,260.553406 
	C200.782578,258.054443 200.607254,255.420090 200.383087,252.005920 
	C200.227692,250.154938 200.121124,249.083786 200.014542,248.012619 
z"/>
<path fill="#0D2141" opacity="1.000000" stroke="none" 
	d="
M199.701843,293.066956 
	C200.035156,311.444336 200.035156,329.876892 200.035156,348.756714 
	C209.269592,348.756714 218.178162,348.756714 227.554047,348.815491 
	C225.157227,349.248505 222.300308,349.859619 219.427490,349.946716 
	C213.783676,350.117889 208.130615,350.037201 202.482147,349.981781 
	C199.536911,349.952881 197.552063,349.194672 197.656784,345.407440 
	C198.128113,328.363831 198.344620,311.313202 198.689117,294.265839 
	C198.696899,293.880157 199.132492,293.503143 199.701843,293.066956 
z"/>
<path fill="#0D2141" opacity="1.000000" stroke="none" 
	d="
M199.745026,218.083908 
	C200.102814,226.718964 200.108810,235.387009 200.033508,244.515152 
	C199.633377,242.746964 199.242294,240.526184 199.010010,238.288925 
	C198.435089,232.751541 197.805130,227.213470 197.506531,221.659042 
	C197.445068,220.515457 198.729263,219.299515 199.745026,218.083908 
z"/>
<path fill="#0D2141" opacity="1.000000" stroke="none" 
	d="
M199.748596,248.225433 
	C200.121124,249.083786 200.227692,250.154938 200.231506,251.619141 
	C199.913376,250.820862 199.698013,249.629547 199.748596,248.225433 
z"/>
<path fill="#0D2141" opacity="1.000000" stroke="none" 
	d="
M9.383314,288.924713 
	C9.284342,279.126678 9.604582,269.230255 9.865443,259.332245 
	C9.948319,256.187653 9.873090,253.038879 9.888569,249.416214 
	C10.270787,250.147888 10.941503,251.353043 10.950573,252.563187 
	C11.032483,263.490845 11.035029,274.419678 10.945081,285.347198 
	C10.935511,286.509827 10.185860,287.666351 9.383314,288.924713 
z"/>
<path fill="#DDE9EC" opacity="1.000000" stroke="none" 
	d="
M335.007812,427.363281 
	C336.028046,426.619080 337.132751,426.244110 338.520569,425.986023 
	C340.422180,430.515137 342.040649,434.927338 343.926453,440.068237 
	C339.398560,440.068237 334.987671,440.068237 329.689850,440.068237 
	C331.522522,435.883575 333.307404,431.808044 335.007812,427.363281 
z"/>
<path fill="#E6EFF1" opacity="1.000000" stroke="none" 
	d="
M100.154427,441.178864 
	C99.815063,439.696472 99.949707,438.346893 100.090233,436.589172 
	C102.024544,432.374512 103.952965,428.568024 106.232101,424.413635 
	C106.582825,424.065735 107.003311,424.005829 107.003311,424.005829 
	C110.025154,429.313599 113.047005,434.621368 116.068848,439.929169 
	C115.664352,440.389984 115.259857,440.850830 114.855370,441.311676 
	C110.113060,441.311676 105.370750,441.311676 100.154427,441.178864 
z"/>
<path fill="#1A2B38" opacity="1.000000" stroke="none" 
	d="
M107.214462,423.715729 
	C107.003311,424.005829 106.582825,424.065735 106.371170,424.084839 
	C105.163223,423.372620 104.166931,422.641235 103.170654,421.909851 
	C104.262566,420.634155 105.166756,419.053009 106.528397,418.216187 
	C107.174850,417.818878 108.694107,418.841705 109.817963,419.221161 
	C109.020515,420.622650 108.223068,422.024139 107.214462,423.715729 
z"/>
<path fill="#CADCDD" opacity="1.000000" stroke="none" 
	d="
M25.209129,433.243408 
	C24.377161,433.834351 23.545195,434.425293 22.371996,435.089874 
	C20.296574,435.106750 18.562384,435.050018 16.065155,435.005066 
	C14.241204,434.657410 13.180291,434.297943 12.119381,433.938477 
	C9.792944,429.181580 10.912828,424.815491 13.818926,420.317657 
	C14.190233,420.012909 14.371141,420.020905 14.843342,420.459839 
	C15.183919,421.976044 15.644598,423.270477 15.216300,424.112946 
	C12.236488,429.974609 13.725211,432.706696 20.270773,433.035339 
	C21.916225,433.117981 23.562977,433.174744 25.209129,433.243408 
z"/>
<path fill="#324042" opacity="1.000000" stroke="none" 
	d="
M11.719572,433.958099 
	C13.180291,434.297943 14.241204,434.657410 15.636868,435.081299 
	C15.518585,438.573792 12.837604,440.336700 10.150550,438.715881 
	C9.197751,438.141144 8.811930,436.626465 8.167274,435.540894 
	C9.218105,435.019836 10.268935,434.498779 11.719572,433.958099 
z"/>
<path fill="#F8FCFC" opacity="1.000000" stroke="none" 
	d="
M25.202686,433.234802 
	C23.562977,433.174744 21.916225,433.117981 20.270773,433.035339 
	C13.725211,432.706696 12.236488,429.974609 15.216300,424.112946 
	C15.644598,423.270477 15.183919,421.976044 15.097342,420.556091 
	C17.072031,420.182800 19.084011,420.144165 21.612509,420.483948 
	C27.166729,423.355499 27.981333,427.052094 25.296377,431.799591 
	C25.085325,432.172791 25.235844,432.750488 25.218323,433.233124 
	C25.218323,433.233124 25.196239,433.226166 25.202686,433.234802 
z"/>
<path fill="#CADCDD" opacity="1.000000" stroke="none" 
	d="
M25.588362,433.197113 
	C25.235844,432.750488 25.085325,432.172791 25.296377,431.799591 
	C27.981333,427.052094 27.166729,423.355499 22.041725,420.532898 
	C24.086428,421.392090 26.218431,422.580780 28.636467,423.965759 
	C28.921162,427.486755 29.859547,431.120941 25.588362,433.197113 
z"/>
</svg>